<svg width="140" height="25" viewBox="0 0 140 25" fill="none" xmlns="http://www.w3.org/2000/svg">
<path d="M0.545455 3.22727V0.727272H18V3.22727H10.6818V24H7.86364V3.22727H0.545455ZM24.7472 24.4091C23.6411 24.4091 22.6373 24.2008 21.7358 23.7841C20.8343 23.3598 20.1184 22.75 19.5881 21.9545C19.0578 21.1515 18.7926 20.1818 18.7926 19.0455C18.7926 18.0455 18.9896 17.2348 19.3835 16.6136C19.7775 15.9848 20.304 15.4924 20.9631 15.1364C21.6222 14.7803 22.3494 14.5152 23.1449 14.3409C23.9479 14.1591 24.7547 14.0152 25.5653 13.9091C26.6259 13.7727 27.4858 13.6705 28.1449 13.6023C28.8116 13.5265 29.2964 13.4015 29.5994 13.2273C29.91 13.053 30.0653 12.75 30.0653 12.3182V12.2273C30.0653 11.1061 29.7585 10.2348 29.1449 9.61364C28.5388 8.99242 27.6184 8.68182 26.3835 8.68182C25.1032 8.68182 24.0994 8.96212 23.3722 9.52273C22.6449 10.0833 22.1335 10.6818 21.8381 11.3182L19.2926 10.4091C19.7472 9.34848 20.3532 8.52273 21.1108 7.93182C21.8759 7.33333 22.7093 6.91667 23.6108 6.68182C24.5199 6.43939 25.4138 6.31818 26.2926 6.31818C26.8532 6.31818 27.4972 6.38636 28.2244 6.52273C28.9593 6.65151 29.6676 6.92045 30.3494 7.32954C31.0388 7.73864 31.6108 8.35606 32.0653 9.18182C32.5199 10.0076 32.7472 11.1136 32.7472 12.5V24H30.0653V21.6364H29.929C29.7472 22.0152 29.4441 22.4205 29.0199 22.8523C28.5956 23.2841 28.0313 23.6515 27.3267 23.9545C26.6222 24.2576 25.7623 24.4091 24.7472 24.4091ZM25.1562 22C26.2169 22 27.1108 21.7917 27.8381 21.375C28.5729 20.9583 29.1259 20.4205 29.4972 19.7614C29.8759 19.1023 30.0653 18.4091 30.0653 17.6818V15.2273C29.9517 15.3636 29.7017 15.4886 29.3153 15.6023C28.9366 15.7083 28.4972 15.803 27.9972 15.8864C27.5047 15.9621 27.0237 16.0303 26.554 16.0909C26.0919 16.1439 25.7169 16.1894 25.429 16.2273C24.732 16.3182 24.0805 16.4659 23.4744 16.6705C22.8759 16.8674 22.3911 17.1667 22.0199 17.5682C21.6563 17.9621 21.4744 18.5 21.4744 19.1818C21.4744 20.1136 21.8191 20.8182 22.5085 21.2955C23.2055 21.7652 24.0881 22 25.1562 22ZM40.3239 13.5V24H37.642V0.727272H40.3239V9.27273H40.5511C40.9602 8.37121 41.5739 7.6553 42.392 7.125C43.2178 6.58712 44.3163 6.31818 45.6875 6.31818C46.8769 6.31818 47.9186 6.55682 48.8125 7.03409C49.7064 7.50379 50.3996 8.22727 50.892 9.20455C51.392 10.1742 51.642 11.4091 51.642 12.9091V24H48.9602V13.0909C48.9602 11.7045 48.6004 10.6326 47.8807 9.875C47.1686 9.10985 46.1799 8.72727 44.9148 8.72727C44.036 8.72727 43.2481 8.91288 42.5511 9.28409C41.8617 9.6553 41.3163 10.197 40.9148 10.9091C40.5208 11.6212 40.3239 12.4848 40.3239 13.5ZM61.6847 24.4091C60.5786 24.4091 59.5748 24.2008 58.6733 23.7841C57.7718 23.3598 57.0559 22.75 56.5256 21.9545C55.9953 21.1515 55.7301 20.1818 55.7301 19.0455C55.7301 18.0455 55.9271 17.2348 56.321 16.6136C56.715 15.9848 57.2415 15.4924 57.9006 15.1364C58.5597 14.7803 59.2869 14.5152 60.0824 14.3409C60.8854 14.1591 61.6922 14.0152 62.5028 13.9091C63.5634 13.7727 64.4233 13.6705 65.0824 13.6023C65.7491 13.5265 66.2339 13.4015 66.5369 13.2273C66.8475 13.053 67.0028 12.75 67.0028 12.3182V12.2273C67.0028 11.1061 66.696 10.2348 66.0824 9.61364C65.4763 8.99242 64.5559 8.68182 63.321 8.68182C62.0407 8.68182 61.0369 8.96212 60.3097 9.52273C59.5824 10.0833 59.071 10.6818 58.7756 11.3182L56.2301 10.4091C56.6847 9.34848 57.2907 8.52273 58.0483 7.93182C58.8134 7.33333 59.6468 6.91667 60.5483 6.68182C61.4574 6.43939 62.3513 6.31818 63.2301 6.31818C63.7907 6.31818 64.4347 6.38636 65.1619 6.52273C65.8968 6.65151 66.6051 6.92045 67.2869 7.32954C67.9763 7.73864 68.5483 8.35606 69.0028 9.18182C69.4574 10.0076 69.6847 11.1136 69.6847 12.5V24H67.0028V21.6364H66.8665C66.6847 22.0152 66.3816 22.4205 65.9574 22.8523C65.5331 23.2841 64.9688 23.6515 64.2642 23.9545C63.5597 24.2576 62.6998 24.4091 61.6847 24.4091ZM62.0938 22C63.1544 22 64.0483 21.7917 64.7756 21.375C65.5104 20.9583 66.0634 20.4205 66.4347 19.7614C66.8134 19.1023 67.0028 18.4091 67.0028 17.6818V15.2273C66.8892 15.3636 66.6392 15.4886 66.2528 15.6023C65.8741 15.7083 65.4347 15.803 64.9347 15.8864C64.4422 15.9621 63.9612 16.0303 63.4915 16.0909C63.0294 16.1439 62.6544 16.1894 62.3665 16.2273C61.6695 16.3182 61.018 16.4659 60.4119 16.6705C59.8134 16.8674 59.3286 17.1667 58.9574 17.5682C58.5938 17.9621 58.4119 18.5 58.4119 19.1818C58.4119 20.1136 58.7566 20.8182 59.446 21.2955C60.143 21.7652 61.0256 22 62.0938 22ZM87.6705 6.54545C87.5341 5.39394 86.9811 4.5 86.0114 3.86364C85.0417 3.22727 83.8523 2.90909 82.4432 2.90909C81.4129 2.90909 80.5114 3.07576 79.7386 3.40909C78.9735 3.74242 78.375 4.20076 77.9432 4.78409C77.5189 5.36742 77.3068 6.0303 77.3068 6.77273C77.3068 7.39394 77.4545 7.92803 77.75 8.375C78.053 8.81439 78.4394 9.18182 78.9091 9.47727C79.3788 9.76515 79.8712 10.0038 80.3864 10.1932C80.9015 10.375 81.375 10.5227 81.8068 10.6364L84.1705 11.2727C84.7765 11.4318 85.4508 11.6515 86.1932 11.9318C86.9432 12.2121 87.6591 12.5947 88.3409 13.0795C89.0303 13.5568 89.5985 14.1705 90.0455 14.9205C90.4924 15.6705 90.7159 16.5909 90.7159 17.6818C90.7159 18.9394 90.3864 20.0758 89.7273 21.0909C89.0758 22.1061 88.1212 22.9129 86.8636 23.5114C85.6136 24.1098 84.0947 24.4091 82.3068 24.4091C80.6402 24.4091 79.197 24.1402 77.9773 23.6023C76.7652 23.0644 75.8106 22.3144 75.1136 21.3523C74.4242 20.3902 74.0341 19.2727 73.9432 18H76.8523C76.928 18.8788 77.2235 19.6061 77.7386 20.1818C78.2614 20.75 78.9205 21.1742 79.7159 21.4545C80.5189 21.7273 81.3826 21.8636 82.3068 21.8636C83.3826 21.8636 84.3485 21.6894 85.2045 21.3409C86.0606 20.9848 86.7386 20.4924 87.2386 19.8636C87.7386 19.2273 87.9886 18.4848 87.9886 17.6364C87.9886 16.8636 87.7727 16.2348 87.3409 15.75C86.9091 15.2652 86.3409 14.8712 85.6364 14.5682C84.9318 14.2652 84.1705 14 83.3523 13.7727L80.4886 12.9545C78.6705 12.4318 77.2311 11.6856 76.1705 10.7159C75.1098 9.74621 74.5795 8.47727 74.5795 6.90909C74.5795 5.60606 74.9318 4.4697 75.6364 3.5C76.3485 2.52273 77.303 1.76515 78.5 1.22727C79.7045 0.681817 81.0492 0.40909 82.5341 0.40909C84.0341 0.40909 85.3674 0.678029 86.5341 1.21591C87.7008 1.74621 88.625 2.47348 89.3068 3.39773C89.9962 4.32197 90.3598 5.37121 90.3977 6.54545H87.6705ZM102.077 24.3636C100.501 24.3636 99.1184 23.9886 97.929 23.2386C96.7472 22.4886 95.8229 21.4394 95.1562 20.0909C94.4972 18.7424 94.1676 17.1667 94.1676 15.3636C94.1676 13.5455 94.4972 11.9583 95.1562 10.6023C95.8229 9.24621 96.7472 8.19318 97.929 7.44318C99.1184 6.69318 100.501 6.31818 102.077 6.31818C103.652 6.31818 105.031 6.69318 106.213 7.44318C107.402 8.19318 108.327 9.24621 108.986 10.6023C109.652 11.9583 109.986 13.5455 109.986 15.3636C109.986 17.1667 109.652 18.7424 108.986 20.0909C108.327 21.4394 107.402 22.4886 106.213 23.2386C105.031 23.9886 103.652 24.3636 102.077 24.3636ZM102.077 21.9545C103.274 21.9545 104.259 21.6477 105.031 21.0341C105.804 20.4205 106.376 19.6136 106.747 18.6136C107.118 17.6136 107.304 16.5303 107.304 15.3636C107.304 14.197 107.118 13.1098 106.747 12.1023C106.376 11.0947 105.804 10.2803 105.031 9.65909C104.259 9.03788 103.274 8.72727 102.077 8.72727C100.88 8.72727 99.8949 9.03788 99.1222 9.65909C98.3494 10.2803 97.7775 11.0947 97.4062 12.1023C97.035 13.1098 96.8494 14.197 96.8494 15.3636C96.8494 16.5303 97.035 17.6136 97.4062 18.6136C97.7775 19.6136 98.3494 20.4205 99.1222 21.0341C99.8949 21.6477 100.88 21.9545 102.077 21.9545ZM114.08 24V6.54545H116.67V9.18182H116.852C117.17 8.31818 117.746 7.61742 118.58 7.07954C119.413 6.54167 120.352 6.27273 121.398 6.27273C121.595 6.27273 121.841 6.27651 122.136 6.28409C122.432 6.29167 122.655 6.30303 122.807 6.31818V9.04545C122.716 9.02273 122.508 8.98864 122.182 8.94318C121.864 8.89015 121.527 8.86364 121.17 8.86364C120.322 8.86364 119.564 9.04167 118.898 9.39773C118.239 9.74621 117.716 10.2311 117.33 10.8523C116.951 11.4659 116.761 12.1667 116.761 12.9545V24H114.08ZM132.773 24.3636C131.091 24.3636 129.64 23.9924 128.42 23.25C127.208 22.5 126.273 21.4545 125.614 20.1136C124.962 18.7652 124.636 17.197 124.636 15.4091C124.636 13.6212 124.962 12.0455 125.614 10.6818C126.273 9.31061 127.189 8.24242 128.364 7.47727C129.545 6.70455 130.924 6.31818 132.5 6.31818C133.409 6.31818 134.307 6.4697 135.193 6.77273C136.08 7.07576 136.886 7.56818 137.614 8.25C138.341 8.92424 138.92 9.81818 139.352 10.9318C139.784 12.0455 140 13.4167 140 15.0455V16.1818H126.545V13.8636H137.273C137.273 12.8788 137.076 12 136.682 11.2273C136.295 10.4545 135.742 9.8447 135.023 9.39773C134.311 8.95076 133.47 8.72727 132.5 8.72727C131.432 8.72727 130.508 8.99242 129.727 9.52273C128.955 10.0455 128.36 10.7273 127.943 11.5682C127.527 12.4091 127.318 13.3106 127.318 14.2727V15.8182C127.318 17.1364 127.545 18.2538 128 19.1705C128.462 20.0795 129.102 20.7727 129.92 21.25C130.739 21.7197 131.689 21.9545 132.773 21.9545C133.477 21.9545 134.114 21.8561 134.682 21.6591C135.258 21.4545 135.754 21.1515 136.17 20.75C136.587 20.3409 136.909 19.8333 137.136 19.2273L139.727 19.9545C139.455 20.8333 138.996 21.6061 138.352 22.2727C137.708 22.9318 136.913 23.447 135.966 23.8182C135.019 24.1818 133.955 24.3636 132.773 24.3636Z" fill="white"/>
</svg>
